# xmcd
#
# Track frame offsets:
#	150
#	18100
#	32893
#	49728
#	64710
#	79909
#	94094
#	112868
#	129991
#	145894
#	165824
#	178024
#	192022
#	208058
#	225190
#	242206
#	261437
#	280572
#
# Disc length: 3899 seconds
#
# Revision: 1
# Processed by: cddbd v1.5.1PL0 Copyright (c) Steve Scherf et al.
# Submitted via: audiograbber 1.83.01
#
DISCID=e60f3912
DTITLE=Promo Only Canada - Country Radio - 2000 - 01 - January
DYEAR=2000
DGENRE=Country
TTITLE0=Jessica Andrews - Unbreakable Heart
TTITLE1=Wynonna - Can't Nobody Love You (Like I Do)
TTITLE2=Lorrie Morgan - To Get To You
TTITLE3=Andy Griggs - She's More
TTITLE4=Jerry Kilgore - The Look
TTITLE5=Paul Brandt - Six Tons Of Toys
TTITLE6=Alabama - Twentieth Century
TTITLE7=Chalee Tennison - Just Because She Lives There
TTITLE8=Jennifer Day - The Fun Of Your Love
TTITLE9=Martina McBride - Love's The Only House
TTITLE10=Crystal Gayle and Willie Nelson - Two Sleepy People
TTITLE11=Julie Reeves - What I Need
TTITLE12=Kenny Rogers - Buy Me A Rose
TTITLE13=Suzy Bogguss and T. Graham Brown - Love Is Blind
TTITLE14=Susan Aglukark - One Turn Deserves Another
TTITLE15=Cledus T. Judd - Coronary Life
TTITLE16=Trisha Yearwood - You're Where I Belong
TTITLE17=Jeff Foxworthy - Howdy From Maui
EXTD=
EXTT0=
EXTT1=
EXTT2=
EXTT3=
EXTT4=
EXTT5=
EXTT6=
EXTT7=
EXTT8=
EXTT9=
EXTT10=
EXTT11=
EXTT12=
EXTT13=
EXTT14=
EXTT15=
EXTT16=
EXTT17=
PLAYORDER=
